# xmcd
#
# Track frame offsets:
#	150
#	18077
#	32410
#	46595
#	60690
#	74752
#	93272
#	106605
#	125757
#	141657
#	161467
#	179397
#	193732
#	207915
#	222010
#	236070
#	254590
#	267922
#	287075
#	302975
#
# Disc length: 4303 seconds
#
# Revision: 2
# Processed by: cddbd v1.5.2PL0 Copyright (c) Steve Scherf et al.
# Submitted via: audiograbber 1.83.01
#
DISCID=2910cd14
DTITLE=Top Hits Monthly 0305 Country - THC0305
DYEAR=2003
DGENRE=Karaoke
TTITLE0=Tim McGraw  - She's My Kind Of Rain (vocals)
TTITLE1=Rascal Flatts - Love You Out Loud (vocals)
TTITLE2=Sammy Kershaw - I Want My Money Back (vocals)
TTITLE3=John Michael Montgomery - Country Thang (vocals)
TTITLE4=Anthony Smith - Half A Man (vocals)
TTITLE5=Steve Holly  - Rock-A-Bye Heart (vocals)
TTITLE6=Tammy Cochran - Love Won't Let Me (vocals)
TTITLE7=Travis Tritt - Country Ain't Country (vocals)
TTITLE8=Mark Chesnutt - I'm In Love With A Married Woman (vocals)
TTITLE9=Toby Keith - We Shook Hands ( Man To Man ) (vocals)
TTITLE10=Tim McGraw  - She's My Kind Of Rain
TTITLE11=Rascal Flatts - Love You Out Loud
TTITLE12=Sammy Kershaw - I Want My Money Back
TTITLE13=John Michael Montgomery - Country Thang
TTITLE14=Anthony Smith - Half A Man
TTITLE15=Steve Holly  - Rock-A-Bye Heart
TTITLE16=Tammy Cochran - Love Won't Let Me
TTITLE17=Travis Tritt - Country Ain't Country
TTITLE18=Mark Chesnutt - I'm In Love With A Married Woman
TTITLE19=Toby Keith - We Shook Hands ( Man To Man )
EXTD=fixed vocal listings
EXTT0=
EXTT1=
EXTT2=
EXTT3=
EXTT4=
EXTT5=
EXTT6=
EXTT7=
EXTT8=
EXTT9=
EXTT10=
EXTT11=
EXTT12=
EXTT13=
EXTT14=
EXTT15=
EXTT16=
EXTT17=
EXTT18=
EXTT19=
PLAYORDER=
